<svg version="1.2" xmlns="http://www.w3.org/2000/svg" viewBox="0 0 600 117" width="200" height="39">
	<title>mobicred-pty-ltd-logo-vector-svg</title>
	<style>
		.s0 { fill: #13a7a8 } 
	</style>
	<path id="Layer" fill-rule="evenodd" class="s0" d="m16.1 47.9c-2.8 0-5.1-2.3-5-5.1 0-1 0.3-1.9 0.8-2.7 13.3-21.2 41.2-27.6 62.4-14.3 1.2 0.7 2.3 1.5 3.4 2.4 2.3 1.6 2.8 4.8 1.2 7-1.6 2.3-4.8 2.8-7 1.2-0.1 0-0.1-0.1-0.2-0.1-15.4-11.8-37.5-8.9-49.4 6.5-0.7 0.9-1.3 1.8-1.9 2.8-1 1.5-2.6 2.3-4.3 2.3zm-10.9-13.3c-2.8 0-5.1-2.3-5.1-5.1 0-1 0.3-1.9 0.8-2.7 16.6-26.4 51.5-34.4 77.9-17.8 1.5 0.9 2.9 1.9 4.3 3 2.2 1.7 2.5 4.9 0.8 7.1-1.7 2.1-4.6 2.5-6.8 1-20.3-15.6-49.4-11.8-65.1 8.5-0.9 1.2-1.8 2.4-2.6 3.7-0.9 1.5-2.5 2.3-4.2 2.3zm588.1-27.7h0.5c2.5 0.1 4.8 1.6 5.8 4 0.3 0.8 0.5 1.6 0.5 2.4v96.7c-0.1 2.6-1.7 5-4.2 5.9-0.8 0.3-1.7 0.4-2.5 0.5-2.7 0-5.1-1.7-6-4.2-0.4-1.5-1.7-2.6-3.2-2.6h-0.1c-0.9 0.1-1.8 0.4-2.6 1-5.9 3.7-12.8 5.7-19.8 5.8h-1.1c-8-0.1-15.8-2.6-22.4-7.3-3.6-2.6-6.7-5.8-9.2-9.4-9.4-13.6-9.3-31.6 0.2-45.1 2.7-3.7 6-6.9 9.8-9.4 3.5-2.5 7.4-4.4 11.6-5.5 3.5-0.9 7.1-1.4 10.7-1.4 7.4 0.1 14.7 2.3 21 6.3 0.4 0.2 0.9 0.3 1.3 0.3 1.5 0 2.8-1 3.2-2.4 0-0.3 0.1-0.6 0.1-0.9v-26.7c-0.3-3 1.3-6 4-7.3 0.8-0.5 1.6-0.6 2.4-0.7zm-58.1 69.9v0.8c0.1 13.9 11.2 25.1 25.1 25.4h1.4c6-0.1 11.8-2.3 16.3-6.3 1.8-1.6 3.4-3.4 4.7-5.4 2.6-4.1 4.1-8.8 4.1-13.7v-0.9c-0.2-13.8-11.3-25.1-25.1-25.4h-1.4c-6 0.1-11.8 2.3-16.3 6.3-5.4 5-8.6 11.9-8.8 19.2zm-359.7-38.6h1.3c8.5 0.2 16.7 3.1 23.5 8.3 2.7 2.2 5.2 4.7 7.2 7.5 5.1 6.8 7.8 15 7.8 23.4 0 10.3-4 20.1-11.2 27.5-7.3 7.2-17 11.3-27.2 11.6h-1.3c-8.5-0.1-16.8-3.1-23.5-8.3-2.5-1.9-4.7-4.2-6.6-6.6-5.5-6.9-8.4-15.4-8.4-24.2 0-9.7 3.6-19 10.1-26.2 2.2-2.5 4.7-4.6 7.5-6.4 6.1-4.3 13.4-6.5 20.8-6.6zm-25.2 39.1v0.5c0.2 13.9 11.4 25.1 25.3 25.2h1c13.9-0.1 25.2-11.3 25.3-25.3v-0.5c0.1-7.1-2.8-14-8-18.9-2.6-2.4-5.7-4.3-9.1-5.6-2.6-0.9-5.3-1.4-8.1-1.4h-1.4c-4.7 0.1-9.2 1.5-13.1 4-2.1 1.4-4 3-5.7 4.9-2.3 2.6-4 5.7-5 9.1-0.8 2.6-1.2 5.3-1.2 8zm79.4-70.2h0.6c2.3 0.1 4.3 1.4 5.4 3.4 0.7 1.4 1 3 0.9 4.6v27q0 1.8 2.4 2.7c0.5 0.1 0.8 0.1 0.8 0.1 1.9-0.6 3.8-1.4 5.4-2.6 5.2-2.5 10.9-3.8 16.6-3.9h1.3c7.3 0.1 14.5 2.3 20.6 6.3 7.3 4.7 12.8 11.8 15.5 20.1 1.3 4 2 8.2 2.1 12.4v0.5c-0.1 9.3-3.5 18.4-9.6 25.4-2.1 2.4-4.5 4.5-7.1 6.3-6.5 4.6-14.3 7-22.2 7-7.6 0-15.1-2.2-21.5-6.3-0.4-0.3-1-0.5-1.5-0.5h-0.2c-1.6 0-2.9 1.2-3.7 3.7-2 3.1-6 4-9.1 2-0.9-0.6-1.7-1.4-2.2-2.4-0.4-0.9-0.7-1.9-0.8-2.9v-96.7c0.1-2.4 1.5-4.6 3.7-5.6 0.8-0.4 1.7-0.6 2.6-0.6zm6.9 70.1v0.6c0.3 13.9 11.4 25.1 25.3 25.3h1c13.9-0.2 25.1-11.4 25.3-25.3v-0.6c0-6.8-2.7-13.4-7.6-18.2-2.7-2.8-6-4.8-9.7-6-2.5-0.9-5.2-1.4-7.9-1.5h-1.3c-13.9 0.4-25.1 11.8-25.1 25.7zm78.7-38.9h1.1c1.9 0.1 3.7 1.1 4.8 2.6 0.7 1.1 1.2 2.3 1.2 3.6v65.5c-0.1 2.5-1.6 4.8-3.9 5.8-0.8 0.3-1.5 0.5-2.4 0.5h-0.6c-2.3-0.1-4.3-1.4-5.4-3.4-0.7-1.4-1-3-0.9-4.5v-62.3c-0.4-2.7 0.9-5.4 3.1-6.9 0.9-0.5 1.9-0.9 3-0.9zm0.3-26.3h0.4c3 0 5.8 1.8 7.1 4.5 0.6 1.1 0.8 2.2 0.8 3.4v0.8c-0.1 3-1.9 5.8-4.7 7-1.1 0.5-2.3 0.8-3.5 0.8-3.4 0.1-6.4-2-7.6-5.2-0.3-0.8-0.5-1.7-0.5-2.6v-0.7c0-3.4 2.2-6.5 5.5-7.5 0.8-0.3 1.6-0.5 2.5-0.5zm50.6 26.2c8 0 15.7 2.4 22.3 6.9 1.5 1.3 2.3 3.2 2.3 5.2 0 2.3-1.4 4.5-3.4 5.6-0.9 0.5-2 0.8-3.1 0.8-2.1-0.2-4-0.9-5.6-2.2-3.8-2.1-8.1-3.2-12.5-3.1h-0.5c-4.4 0.1-8.6 1.3-12.4 3.5-5.4 3.2-9.5 8.1-11.5 14-0.9 2.7-1.4 5.5-1.4 8.4 0 7.2 3.1 14.1 8.4 19 3 2.7 6.5 4.7 10.4 5.8 2.1 0.6 4.3 0.9 6.5 1h0.6c5.2 0 10.3-1.5 14.6-4.4 1.1-0.6 2.2-0.9 3.4-0.9 2.2 0.1 4.2 1.2 5.4 3 0.7 1.1 1 2.3 1.1 3.6 0 2.7-1.7 5.2-4.2 6.3-13.9 8.4-31.5 7.4-44.3-2.6-2-1.6-3.8-3.4-5.5-5.3-1.7-1.9-3.2-4-4.4-6.2-3.4-5.9-5.1-12.5-5.1-19.2 0-8.5 2.8-16.8 7.9-23.6 1.6-2 3.3-3.8 5.1-5.6 2.4-2.1 5.1-4 7.9-5.5 5.5-3 11.7-4.5 18-4.5zm38.9 0c2 0.1 3.9 1.1 5.2 2.6 0.5 0.3 1.2 0.5 1.8 0.5h0.2c1.3-0.2 2.5-0.7 3.6-1.3q4.8-1.8 9.9-1.8c6.5 0 12.9 2.4 17.8 6.6 0.5 0.5 0.9 0.9 1.4 1.5-5 5.1-7.6 7.6-7.8 7.6-0.5 0.3-1.1 0.5-1.7 0.5-1.3-0.2-2.4-0.7-3.4-1.5-2-1-4.3-1.5-6.6-1.5-3.9 0-7.7 1.7-10.3 4.6-2.4 2.7-3.8 6.2-3.7 9.8v42.9c0.3 2.3-0.6 4.5-2.4 6-1.1 1-2.5 1.6-3.9 1.6h-0.7c-2.7-0.1-5-1.9-5.9-4.4-0.3-1-0.4-2.1-0.4-3.1v-62.9c-0.2-2.2 0.6-4.3 2.2-5.7 1.3-1.3 2.9-2 4.7-2zm77.9 0c10.8 0 21.1 4.4 28.5 12.3 2.2 1.9 3.8 4.5 4.4 7.3 0 0.3 0 0.6 0.1 0.8-0.1 1.8-0.9 3.5-2.2 4.7-0.8 0.7-13.4 9.7-37.9 27 0 0-2.1 1.6-6.2 4.5-0.5 0.6-0.9 1.3-0.9 2.1v0.5c0.1 1.1 0.6 2 1.6 2.5 3.6 1.9 7.6 3 11.7 3.1h1.5c9-0.2 17.2-5 21.7-12.8 1.1-1.8 1.9-3.7 2.5-5.7 0.2-1.9 1-3.7 2.1-5.2 1.2-1.2 2.9-2 4.6-2.1 2.8-0.1 5.4 1.6 6.3 4.3 0.3 0.7 0.4 1.4 0.4 2.1v0.2c-0.4 3.4-1.3 6.6-2.8 9.7-1.4 3-3.2 5.8-5.3 8.4-2 2.4-4.2 4.5-6.7 6.4-2.7 2-5.6 3.7-8.8 5-4.4 1.9-9.2 2.9-14 3h-1.2c-8.2-0.1-16.1-2.7-22.7-7.6-3.3-2.5-6.2-5.4-8.7-8.8-1.5-2.2-2.8-4.5-4-6.9-2.1-5-3.3-10.3-3.3-15.7 0-9.3 3.3-18.4 9.3-25.6 1.9-2.2 4-4.1 6.3-5.9 6.9-4.9 15.2-7.7 23.7-7.6zm-25.9 39c0 3.6 0.4 5.7 1.3 6.3q1 0.9 2.4 0.9c1.6-0.5 3.1-1.4 4.3-2.6 0.2-0.1 10.5-7.4 30.7-21.8 0.7-0.6 1.1-1.5 1.1-2.4v-0.4c-0.1-1-0.6-1.9-1.5-2.4-3.6-2-7.6-3.1-11.7-3.2h-1.5c-13.9 0.1-25.1 11.5-25.1 25.6zm-331.7-22.8c2 3.5 3.1 7.5 3.4 11.5v41.7c0.1 1.5-0.2 2.9-0.8 4.3-0.8 1.3-1.9 2.3-3.3 2.9-0.8 0.3-1.5 0.5-2.3 0.5h-0.2c-1.1-0.1-2.1-0.4-3.1-0.9-1.2-0.8-2.1-1.8-2.7-3.1-0.4-1.2-0.6-2.5-0.6-3.8v-41.7c-0.3-2.5-1.2-4.9-2.7-6.9l-0.8-1.1c-1.9-2.4-4.4-4.2-7.3-5.4l-0.3-0.1c-0.4-0.1-0.8-0.3-1.3-0.4-0.3-0.1-0.4-0.1-0.7-0.2-0.4-0.1-0.8-0.1-1.1-0.2l-0.9-0.2c-0.4-0.1-0.8-0.1-1.2-0.1q-0.5 0-0.9 0c-0.6 0-1.3 0-1.9 0.1-0.1 0-0.3 0.1-0.5 0.1-0.5 0.1-0.9 0.1-1.3 0.2-0.6 0.2-1.2 0.3-1.7 0.5-3.3 1.1-6.3 3.3-8.5 6.1-1.7 2.2-2.7 4.7-3.1 7.4v42c0.1 1.4-0.2 2.9-0.8 4.2-0.4 0.8-1 1.5-1.7 2.1-0.4 0.3-0.9 0.6-1.4 0.8q-1.2 0.4-2.4 0.6h-0.4q-1.2-0.2-2.4-0.6c-0.5-0.2-1-0.5-1.4-0.8-0.7-0.6-1.2-1.3-1.7-2.1-0.6-1.3-0.8-2.8-0.8-4.2v-42c-0.4-2.7-1.5-5.2-3.1-7.4-2.2-2.9-5.1-5-8.5-6.2h-0.1c-0.6-0.1-1.1-0.3-1.6-0.4-0.5-0.1-0.9-0.1-1.3-0.2-0.1-0.1-0.3-0.1-0.5-0.1-0.6-0.1-1.3-0.1-1.9-0.1q-0.5 0-0.9 0c-0.4 0.1-0.9 0.1-1.2 0.1-0.3 0.1-0.5 0.1-0.9 0.2-0.4 0.1-0.7 0.1-1.1 0.2-0.2 0.1-0.4 0.1-0.6 0.2-0.5 0.1-1 0.3-1.4 0.4l-0.3 0.1c-2.8 1.1-5.4 3-7.3 5.4-0.3 0.4-0.6 0.8-0.8 1.1-1.4 2-2.4 4.4-2.7 6.9v41.8c0.1 1.3-0.1 2.6-0.6 3.8-0.6 1.3-1.5 2.3-2.7 3.1q-0.3 0.1-0.6 0.3c-0.8 0.4-1.6 0.6-2.5 0.6h-0.2c-0.8 0-1.6-0.2-2.3-0.5-0.5-0.3-1.1-0.6-1.6-1-0.7-0.5-1.2-1.2-1.7-1.9-0.6-1.3-0.9-2.8-0.8-4.3v-41.7c0.3-4 1.4-7.9 3.4-11.5 1.6-3 3.6-5.7 6.1-8 2.4-2.1 5.1-3.9 8-5.3 0.6-0.3 1.4-0.6 2.2-1l0.7-0.3c3.1-1 6.4-1.6 9.7-1.6 4 0 8 0.8 11.7 2.3 0.1 0.1 0.3 0.1 0.4 0.2 0.5 0.2 0.9 0.5 1.4 0.7 0.5 0.2 0.9 0.4 1.4 0.7l0.5 0.3c1.2 0.8 2.4 1.5 3.5 2.4 0.7 0.8 1.6 1.5 2.4 2.1 0.6 0.5 1.4 0.9 2.2 1h0.3c0.8-0.1 1.6-0.4 2.2-1q1.2-1.1 2.4-2.1c1.1-0.9 2.3-1.7 3.5-2.4 0.1-0.1 0.3-0.2 0.4-0.3 0.4-0.2 0.9-0.5 1.4-0.7 0.5-0.3 0.9-0.5 1.4-0.7 0.1-0.1 0.3-0.1 0.4-0.2 3.7-1.5 7.7-2.3 11.7-2.3 3.3 0.1 6.6 0.6 9.7 1.6l0.7 0.2c0.7 0.4 1.5 0.7 2.2 1 2.9 1.4 5.6 3.2 8 5.3 2.4 2.3 4.5 5 6.1 8z"/>
</svg>